<?xml version="1.0" encoding="UTF-8" standalone="no"?>
<svg
   viewBox="0 0 348 348"
   fill="none"
   version="1.1"
   id="svg836"
   sodipodi:docname="Wordpath.svg"
   inkscape:version="1.1.1 (3bf5ae0d25, 2021-09-20)"
   xmlns:inkscape="http://www.inkscape.org/namespaces/inkscape"
   xmlns:sodipodi="http://sodipodi.sourceforge.net/DTD/sodipodi-0.dtd"
   xmlns="http://www.w3.org/2000/svg"
   xmlns:svg="http://www.w3.org/2000/svg">
  <defs
     id="defs840" />
  <sodipodi:namedview
     id="namedview838"
     pagecolor="#ffffff"
     bordercolor="#666666"
     borderopacity="1.0"
     inkscape:pageshadow="2"
     inkscape:pageopacity="0.0"
     inkscape:pagecheckerboard="0"
     showgrid="false"
     inkscape:zoom="2.25"
     inkscape:cx="173.77778"
     inkscape:cy="186"
     inkscape:window-width="1920"
     inkscape:window-height="1001"
     inkscape:window-x="-9"
     inkscape:window-y="-9"
     inkscape:window-maximized="1"
     inkscape:current-layer="svg836"
     showguides="false">
    <sodipodi:guide
       position="68.998047,264.67188"
       orientation="1,0"
       id="guide1958" />
  </sodipodi:namedview>
  <path
     style="color:#000000;fill:#000000;-inkscape-stroke:none"
     d="M 4,5 V 6 344 H 343 V 5 Z M 6,7 H 341 V 342 H 6 Z"
     id="path824" />
  <path
     style="color:#000000;fill:#000000;-inkscape-stroke:none"
     d="m 38,24 c -8.583325,0 -16,7.481491 -16,17 0,8.583325 7.416675,16 16,16 9.518509,0 17,-7.416675 17,-16 C 55,36.666671 52.864163,32.4501 49.707031,29.292969 46.5499,26.135837 42.333329,24 38,24 Z m 0,2 c 3.666663,0 7.450106,1.864169 10.292969,4.707031 C 51.135831,33.549894 53,37.333337 53,41 53,48.416659 46.481473,55 38,55 30.583341,55 24,48.416659 24,41 24,32.518527 30.583341,26 38,26 Z"
     id="path826" />
  <path
     style="color:#000000;fill:#000000;-inkscape-stroke:none"
     d="m 256.44531,290.69141 -0.66211,0.38086 -20.67968,11.93945 v 24.64258 l 21.34179,12.32226 21.33985,-12.32226 v -24.64258 z m 0,3.05273 18.69531,10.79492 v 21.58789 l -18.69531,10.79492 -18.69726,-10.79492 v -21.58789 z"
     id="path1184" />
  <path
     id="path1310"
     style="color:#000000;fill:#000000;stroke-width:0.898279;-inkscape-stroke:none"
     d="M 163.1543 47.269531 L 152.77148 65.251953 L 132.00781 65.251953 L 121.625 83.234375 L 100.86133 83.234375 L 90.478516 101.2168 L 69.714844 101.21484 L 58.646484 120.38672 L 69.029297 138.36719 L 58.646484 156.34961 L 69.029297 174.33203 L 58.646484 192.31445 L 69.029297 210.29688 L 58.646484 228.2793 L 69.714844 247.45117 L 90.478516 247.44922 L 100.86133 265.43359 L 121.625 265.43164 L 132.00781 283.41602 L 152.77148 283.41406 L 163.1543 301.39648 L 184.60547 301.39648 L 185.29102 301.39844 L 195.67188 283.41602 L 215.75 283.41406 L 216.43555 283.41602 L 226.81641 265.43359 L 246.89648 265.43164 L 247.58203 265.43359 L 257.96289 247.45117 L 278.72852 247.45117 L 289.79688 228.2793 L 279.41406 210.29688 L 289.79688 192.31641 L 279.41406 174.33398 L 289.79688 156.35156 L 279.41406 138.36914 L 289.79688 120.38672 L 278.72852 101.21484 L 278.04297 101.2168 L 257.96289 101.21484 L 247.58203 83.232422 L 246.89648 83.234375 L 226.81836 83.234375 L 216.43555 65.25 L 215.75 65.251953 L 195.67188 65.251953 L 185.29102 47.269531 L 184.60547 47.269531 L 163.1543 47.269531 z M 183.91797 49.644531 L 193.61328 66.439453 L 188.76562 74.835938 L 183.91797 83.234375 L 164.52734 83.234375 L 154.83008 66.439453 L 164.52539 49.646484 L 183.91797 49.644531 z M 152.77148 67.626953 L 162.4668 84.421875 L 152.77148 101.21484 L 133.38086 101.2168 L 123.68359 84.421875 L 133.38086 67.628906 L 152.77148 67.626953 z M 215.06445 67.626953 L 224.75977 84.421875 L 215.06445 101.21484 L 195.67188 101.2168 L 185.97656 84.421875 L 195.67188 67.628906 L 215.06445 67.626953 z M 121.625 85.609375 L 131.32227 102.40625 L 121.625 119.19727 L 111.76562 119.19922 L 102.23242 119.19727 L 92.537109 102.4043 L 102.23438 85.611328 L 121.625 85.609375 z M 183.91797 85.609375 L 193.61328 102.4043 L 183.91797 119.19727 L 174.05859 119.19922 L 164.52344 119.19727 L 154.83008 102.4043 L 164.52539 85.611328 L 183.91797 85.609375 z M 246.21094 85.609375 L 255.90625 102.40234 L 251.05859 110.80078 L 246.20898 119.19727 L 236.35156 119.19922 L 226.81641 119.19727 L 217.12305 102.4043 L 226.81836 85.611328 L 246.21094 85.609375 z M 71.087891 103.5918 L 90.478516 103.5918 L 100.17578 120.38672 L 90.478516 137.17969 L 80.621094 137.18164 L 71.085938 137.17969 L 61.392578 120.38672 L 71.087891 103.5918 z M 152.77148 103.5918 L 162.46875 120.38672 L 152.77148 137.18164 L 133.37891 137.17969 L 123.68359 120.38672 L 133.37891 103.59375 L 152.77148 103.5918 z M 215.0625 103.5918 L 224.75781 120.38672 L 215.0625 137.18164 L 195.66992 137.17969 L 185.97656 120.38672 L 195.66992 103.59375 L 215.0625 103.5918 z M 257.96484 103.5918 L 277.35742 103.5918 L 287.05273 120.38672 L 277.35547 137.17969 L 267.49805 137.18164 L 257.96289 137.17969 L 248.26758 120.38672 L 253.11719 111.98828 L 257.96484 103.5918 z M 102.23438 121.57422 L 121.62695 121.57422 L 131.32227 138.36719 L 122.31641 153.96484 L 121.625 155.16211 L 111.76562 155.16406 L 102.23242 155.16211 L 92.537109 138.36914 L 97.386719 129.97266 L 102.23438 121.57422 z M 164.52539 121.57422 L 183.91797 121.57422 L 193.61328 138.36914 L 183.91797 155.16211 L 174.06055 155.16406 L 164.52539 155.16211 L 154.83008 138.36914 L 164.52539 121.57422 z M 246.20898 121.57422 L 255.90625 138.36914 L 246.90039 153.96484 L 246.20898 155.16211 L 236.35156 155.16406 L 226.81641 155.16211 L 217.12305 138.36914 L 226.81641 121.57617 L 246.20898 121.57422 z M 71.087891 139.55664 L 90.478516 139.55664 L 100.17578 156.35156 L 90.478516 173.14453 L 71.087891 173.14453 L 61.392578 156.35156 L 71.087891 139.55664 z M 133.38086 139.55664 L 152.77148 139.55664 L 162.4668 156.35156 L 152.77148 173.14453 L 133.37891 173.14453 L 123.68359 156.35156 L 128.53125 147.95312 L 133.38086 139.55664 z M 195.67188 139.55664 L 215.0625 139.55664 L 224.75977 156.34961 L 215.0625 173.14453 L 195.67188 173.14453 L 185.97656 156.35156 L 195.67188 139.55664 z M 257.96484 139.55664 L 277.35742 139.55664 L 287.05273 156.35156 L 277.35547 173.14453 L 257.96289 173.14453 L 248.26758 156.35156 L 248.26758 156.34961 L 257.96484 139.55664 z M 102.23438 157.53906 L 121.62695 157.53906 L 131.32227 174.33203 L 126.47266 182.73047 L 121.625 191.12695 L 102.23242 191.12695 L 92.537109 174.33398 L 97.386719 165.9375 L 102.23438 157.53906 z M 164.52734 157.53906 L 183.91797 157.53906 L 193.61328 174.33203 L 188.76562 182.73047 L 183.91797 191.12695 L 164.52539 191.12695 L 154.83008 174.33398 L 164.52734 157.53906 z M 226.81836 157.53906 L 246.21094 157.53906 L 255.90625 174.33203 L 251.05859 182.73047 L 246.20898 191.12695 L 226.81836 191.12695 L 217.12305 174.33398 L 226.81836 157.53906 z M 71.087891 175.52148 L 90.480469 175.52148 L 100.17578 192.31445 L 90.478516 209.10938 L 71.087891 209.10938 L 61.392578 192.31445 L 71.087891 175.52148 z M 133.38086 175.52148 L 152.77148 175.52148 L 162.4668 192.31445 L 152.77148 209.10938 L 133.38086 209.10938 L 123.68359 192.31641 L 123.68359 192.31445 L 133.38086 175.52148 z M 195.67188 175.52148 L 215.06445 175.52148 L 224.75977 192.31445 L 215.0625 209.10938 L 195.67188 209.10938 L 190.82422 200.71094 L 185.97656 192.31445 L 195.67188 175.52148 z M 257.96484 175.52148 L 277.35742 175.52148 L 287.05273 192.31445 L 277.35547 209.10938 L 257.96484 209.10938 L 248.26758 192.31641 L 248.26758 192.31445 L 257.96484 175.52148 z M 102.23438 193.50391 L 121.62695 193.50391 L 131.32227 210.29688 L 126.47266 218.69531 L 121.625 227.0918 L 102.23438 227.0918 L 92.537109 210.29883 L 92.537109 210.29688 L 101.54297 194.70117 L 102.23438 193.50391 z M 164.52734 193.50391 L 183.91992 193.50391 L 188.37891 201.22852 L 193.61328 210.29688 L 188.76562 218.69531 L 183.91797 227.0918 L 164.52734 227.0918 L 154.83008 210.29883 L 154.83008 210.29688 L 164.52734 193.50391 z M 226.81836 193.50391 L 246.21094 193.50391 L 255.90625 210.29688 L 251.05859 218.69531 L 246.20898 227.0918 L 226.81836 227.0918 L 217.12305 210.29688 L 226.81836 193.50391 z M 71.087891 211.48633 L 90.480469 211.48633 L 100.17578 228.2793 L 90.478516 245.07422 L 71.087891 245.07422 L 61.392578 228.2793 L 71.087891 211.48633 z M 133.38086 211.48633 L 152.77344 211.48633 L 157.62109 219.88281 L 162.4668 228.2793 L 152.77148 245.07422 L 133.38086 245.07422 L 123.68359 228.2793 L 133.38086 211.48633 z M 195.67188 211.48633 L 215.06445 211.48633 L 224.75977 228.2793 L 215.0625 245.07422 L 195.67188 245.07422 L 190.82422 236.67578 L 185.97656 228.2793 L 195.67188 211.48633 z M 257.96484 211.48633 L 277.35938 211.48633 L 287.05273 228.2793 L 277.35547 245.07422 L 257.96484 245.07422 L 248.26758 228.2793 L 257.96484 211.48633 z M 102.23242 229.46875 L 121.625 229.46875 L 131.32227 246.26172 L 121.625 263.05664 L 102.23438 263.05664 L 92.537109 246.26172 L 102.23242 229.46875 z M 164.52539 229.46875 L 183.91797 229.46875 L 193.61328 246.26172 L 183.91797 263.05664 L 164.52734 263.05664 L 154.83008 246.26172 L 164.52539 229.46875 z M 226.81641 229.46875 L 246.20898 229.46875 L 252.41602 240.2168 L 255.90625 246.26172 L 246.21094 263.05664 L 226.81836 263.05664 L 217.12305 246.26172 L 226.81641 229.46875 z M 142.74414 247.44922 L 152.77148 247.45117 L 162.4668 264.24414 L 152.77148 281.03906 L 133.38086 281.03906 L 123.68359 264.24609 L 123.68359 264.24414 L 133.37891 247.45117 L 142.74414 247.44922 z M 205.36719 247.44922 L 215.06445 247.45117 L 224.75977 264.24609 L 215.06445 281.03906 L 195.67188 281.03906 L 190.82422 272.64062 L 185.97656 264.24414 L 195.66992 247.45117 L 205.36719 247.44922 z M 174.05859 265.43164 L 183.91797 265.43359 L 188.76562 273.83008 L 193.61328 282.22656 L 183.91797 299.02148 L 164.52539 299.02148 L 154.83008 282.22656 L 164.52539 265.43359 L 174.05859 265.43164 z " />
  <path
     style="color:#000000;fill:#000000;-inkscape-stroke:none"
     d="m 143.92441,307.62109 1.08203,1.875 14.61719,25.31641 h 29.95508 l 15.69922,-27.19141 z m 4.32813,2.49805 h 52.69922 l -12.81446,22.19531 h -27.07031 z"
     id="path1610" />
  <path
     style="color:#000000;fill:#000000;-inkscape-stroke:none"
     d="m 43.101562,214.51953 -1.080078,1.87305 -14.617187,25.31836 14.976562,25.94336 h 31.398438 z m 0.002,4.99609 26.347656,45.63868 H 43.824219 L 30.289062,241.71094 Z"
     id="path1772" />
  <path
     style="color:#000000;fill:#000000;-inkscape-stroke:none"
     d="m 41.927734,80.830078 -14.976562,25.943362 15.697265,27.1914 30.677735,-53.134762 h -2.164063 z m 1.44336,2.498047 H 68.998047 L 42.650391,128.96875 29.835937,106.77344 Z"
     id="path1774" />
  <path
     style="color:#000000;fill:#000000;-inkscape-stroke:none"
     d="m 158.93198,13.400391 -15.69922,27.191406 h 2.16211 59.19141 L 188.88706,13.400391 Z m 1.44141,2.498047 h 27.07226 l 12.8125,22.195312 h -52.69921 z"
     id="path1776" />
  <path
     style="color:#000000;fill:#000000;-inkscape-stroke:none"
     d="m 305.62695,214.51953 -1.08203,1.87305 -29.59375,51.26172 h 31.39649 l 14.97851,-25.94336 z m 0,4.99805 12.81446,22.19336 -13.53516,23.44336 h -25.62891 z"
     id="path1778" />
  <path
     style="color:#000000;fill:#000000;-inkscape-stroke:none"
     d="m 275.4043,80.830078 1.08007,1.875 29.59571,51.259762 15.69922,-27.1914 -14.97852,-25.943362 z m 4.32617,2.498047 h 25.6289 l 13.53516,23.445315 -12.81445,22.19336 z"
     id="path1780" />
</svg>
